<svg width="40" height="40" viewBox="0 0 40 40" fill="none" xmlns="http://www.w3.org/2000/svg">
<rect width="40" height="40" rx="7.8125" fill="#0F172B"/>
<path fill-rule="evenodd" clip-rule="evenodd" d="M12.7245 12.709C14.9818 10.452 18.627 10.4523 20.8779 12.7032C22.6298 14.4552 22.988 17.0131 21.7988 19.7754L25.2255 19.7881C25.5005 19.7945 25.686 19.9802 25.6923 20.2295L25.6865 23.6758L28.1865 23.6573C28.4486 23.6636 28.6409 23.8424 28.6474 24.1172V28.1719C28.6472 28.4402 28.3978 28.6259 28.1806 28.626L26.038 28.6192C25.8015 28.6128 25.6285 28.5427 25.4687 28.3828L19.1572 22.0713C16.9512 23.0622 14.4191 22.5763 12.7118 20.8692C10.4482 18.6055 10.4481 14.9855 12.7245 12.709ZM16.7841 14.3243C15.4342 14.3243 14.3398 15.4261 14.3398 16.7852C14.3399 18.1442 15.4343 19.2461 16.7841 19.2461C18.134 19.2461 19.2283 18.1442 19.2284 16.7852C19.2284 15.4261 18.1341 14.3243 16.7841 14.3243Z" fill="white"/>
</svg>
