<svg width="40" height="40" viewBox="0 0 40 40" fill="none" xmlns="http://www.w3.org/2000/svg">
<path d="M12.7245 12.709C14.9818 10.452 18.627 10.4523 20.8779 12.7032C22.6298 14.4552 22.988 17.0131 21.7988 19.7754L25.2255 19.7881C25.5005 19.7945 25.686 19.9802 25.6923 20.2295L25.6865 23.6758L28.1865 23.6573C28.4486 23.6636 28.6409 23.8424 28.6474 24.1172V28.1719C28.6472 28.4402 28.3978 28.6259 28.1806 28.626L26.038 28.6192C25.8015 28.6128 25.6285 28.5427 25.4687 28.3828L19.1572 22.0713C16.9512 23.0622 14.4191 22.5763 12.7118 20.8692C10.4482 18.6055 10.4481 14.9855 12.7245 12.709ZM16.7841 14.3243C15.4342 14.3243 14.3398 15.4261 14.3398 16.7852C14.3399 18.1442 15.4343 19.2461 16.7841 19.2461C18.134 19.2461 19.2283 18.1442 19.2284 16.7852C19.2284 15.4261 18.1341 14.3243 16.7841 14.3243Z" fill="#0F172B"/>
<path d="M5.23862 14.2859C4.58064 14.2859 4.21875 13.9075 4.21875 13.2495V9.02201C4.21875 5.84726 5.8637 4.21875 9.07135 4.21875H13.2824C13.9569 4.21875 14.3188 4.58064 14.3188 5.23862C14.3188 5.88015 13.9569 6.25849 13.2824 6.25849H9.10425C7.26191 6.25849 6.25848 7.22901 6.25848 9.13716V13.2495C6.25848 13.9075 5.8966 14.2859 5.23862 14.2859ZM34.6832 14.2859C34.0252 14.2859 33.6633 13.9075 33.6633 13.2495V9.13716C33.6633 7.22901 32.6271 6.25849 30.8011 6.25849H26.6229C25.965 6.25849 25.5867 5.88015 25.5867 5.23862C25.5867 4.58064 25.965 4.21875 26.6229 4.21875H30.8505C34.0581 4.21875 35.7031 5.86371 35.7031 9.02201V13.2495C35.7031 13.9075 35.3412 14.2859 34.6832 14.2859ZM9.07135 35.7031C5.8637 35.7031 4.21875 34.0747 4.21875 30.8835V26.6724C4.21875 26.0144 4.56419 25.636 5.23862 25.636C5.8966 25.636 6.25848 26.0144 6.25848 26.6724V30.7847C6.25848 32.6764 7.26191 33.6634 9.10425 33.6634H13.2824C13.9569 33.6634 14.3188 34.0253 14.3188 34.6833C14.3188 35.3248 13.9569 35.7031 13.2824 35.7031H9.07135ZM26.6229 35.7031C25.965 35.7031 25.5867 35.3248 25.5867 34.6833C25.5867 34.0253 25.965 33.6634 26.6229 33.6634H30.8011C32.6271 33.6634 33.6633 32.6764 33.6633 30.7847V26.6724C33.6633 26.0144 34.0088 25.636 34.6832 25.636C35.3248 25.636 35.7031 26.0144 35.7031 26.6724V30.8835C35.7031 34.0582 34.0581 35.7031 30.8505 35.7031H26.6229Z" fill="#0F172B"/>
</svg>
